<?xml version="1.0" encoding="UTF-8" standalone="no"?>
<!-- Created with Inkscape (http://www.inkscape.org/) -->

<svg
   xmlns:dc="http://purl.org/dc/elements/1.1/"
   xmlns:cc="http://creativecommons.org/ns#"
   xmlns:rdf="http://www.w3.org/1999/02/22-rdf-syntax-ns#"
   xmlns:svg="http://www.w3.org/2000/svg"
   xmlns="http://www.w3.org/2000/svg"
   xmlns:sodipodi="http://sodipodi.sourceforge.net/DTD/sodipodi-0.dtd"
   xmlns:inkscape="http://www.inkscape.org/namespaces/inkscape"
   id="svg2"
   version="1.1"
   inkscape:version="0.48.3.1 r9886"
   width="635"
   height="341.6875"
   xml:space="preserve"
   sodipodi:docname="hs_logo_vektor_illustrator10.eps"><metadata
     id="metadata8"><rdf:RDF><cc:Work
         rdf:about=""><dc:format>image/svg+xml</dc:format><dc:type
           rdf:resource="http://purl.org/dc/dcmitype/StillImage" /><dc:title></dc:title></cc:Work></rdf:RDF></metadata><defs
     id="defs6"><clipPath
       clipPathUnits="userSpaceOnUse"
       id="clipPath18"><path
         d="M 0,2733.5 0,0 l 5079.99,0 0,2733.5 -5079.99,0 z"
         id="path20" /></clipPath></defs><sodipodi:namedview
     pagecolor="#ffffff"
     bordercolor="#666666"
     borderopacity="1"
     objecttolerance="10"
     gridtolerance="10"
     guidetolerance="10"
     inkscape:pageopacity="0"
     inkscape:pageshadow="2"
     inkscape:window-width="888"
     inkscape:window-height="1034"
     id="namedview4"
     showgrid="false"
     inkscape:zoom="0.59055118"
     inkscape:cx="317.5"
     inkscape:cy="170.84375"
     inkscape:window-x="64"
     inkscape:window-y="19"
     inkscape:window-maximized="0"
     inkscape:current-layer="g10" /><g
     id="g10"
     inkscape:groupmode="layer"
     inkscape:label="ink_ext_XXXXXX"
     transform="matrix(1.25,0,0,-1.25,0,341.6875)"><g
       id="g12"
       transform="scale(0.1,0.1)"><g
         id="g14"><g
           id="g16"
           clip-path="url(#clipPath18)"><path
             d="m 134.82,878.871 -41.8122,-138.652 83.1872,0 -41.375,138.652 z M 78.0664,690.738 60.582,631.852 l -60.582,0 101.957,301.207 64.016,0 102.8,-301.207 -60.156,0 -17.484,58.886 -113.0666,0"
             style="fill:#231f20;fill-opacity:1;fill-rule:nonzero;stroke:none"
             id="path22" /><path
             d="m 493.594,631.852 -51.188,0 -0.426,21.75 c -10.668,-9.801 -31.585,-26.864 -68.699,-26.864 -35.394,0 -52.883,15.364 -61.422,28.16 -13.668,20.051 -12.379,44.352 -12.379,67.391 l 0,122.871 51.618,0 0,-115.18 c -0.422,-17.492 -0.84,-38.421 17.062,-48.64 6.844,-4.27 16.649,-6.391 24.754,-6.391 24.746,0 37.109,16.192 41.383,23.883 8.523,16.227 7.683,39.246 8.109,55.887 l 0,90.441 51.188,0 0,-213.308"
             style="fill:#231f20;fill-opacity:1;fill-rule:nonzero;stroke:none"
             id="path24" /><path
             d="m 690.691,769.211 c -3.418,11.539 -14.929,36.711 -49.5,36.711 -7.238,0 -24.296,-1.293 -37.964,-16.231 -14.934,-16.191 -14.493,-35.839 -14.493,-42.652 0,-6.82 0,-25.168 13.629,-40.539 2.149,-2.121 6.848,-6.809 13.668,-10.25 4.266,-2.109 12.785,-5.512 25.602,-5.512 20.476,0 31.984,8.094 37.969,14.492 14.496,14.52 14.496,33.29 14.496,40.098 0,11.953 -1.711,19.192 -3.407,23.883 z M 743.59,669.84 c -0.426,-24.738 2.566,-55.051 -13.656,-76.82 -13.215,-17.911 -40.95,-32.43 -89.164,-32.43 -47.79,0 -71.243,13.25 -84.458,32.012 -5.121,7.679 -8.972,16.66 -13.242,34.968 l 56.309,-0.429 c 1.285,-4.262 2.152,-6.809 5.133,-10.653 11.093,-16.207 34.554,-15.789 38.386,-15.789 25.602,0 38.821,9.813 44.375,20.051 5.981,11.102 5.539,22.18 5.539,46.09 -23.886,-21.32 -53.746,-22.61 -64.414,-22.61 -12.793,0 -26.867,2.122 -38.824,7.668 -22.605,9.813 -53.32,35.422 -53.32,93.864 0,6.84 0,26.886 7.262,45.648 14.492,37.11 49.046,60.16 89.156,60.16 7.234,0 27.726,-0.851 45.219,-13.672 7.679,-5.539 13.214,-12.796 14.921,-15.339 l 0,22.601 50.778,0 0,-175.32"
             style="fill:#231f20;fill-opacity:1;fill-rule:nonzero;stroke:none"
             id="path26" /><path
             d="m 936.418,778.191 c -4.27,8.95 -9.797,14.059 -13.23,17.059 -13.223,11.5 -27.293,15.359 -44.782,15.359 -2.144,0 -16.636,0 -26.023,-6.41 -7.688,-5.09 -9.387,-11.949 -9.387,-15.758 0.418,-7.281 5.527,-12.382 6.813,-13.25 5.55,-4.261 19.632,-7.679 36.699,-10.671 11.515,-2.122 23.039,-3.821 34.554,-6.391 11.512,-2.551 24.329,-6.41 33.711,-13.219 7.684,-5.558 23.465,-20.48 23.465,-46.512 0,-10.257 -2.57,-20.027 -7.261,-29.007 -10.223,-19.61 -36.68,-43.942 -88.743,-43.942 -40.101,0 -68.679,13.66 -81.89,21.77 -7.262,4.679 -14.082,10.25 -20.5,16.633 L 818.246,695 c 1.703,-2.141 4.27,-5.98 9.805,-10.672 18.351,-15.789 45.664,-16.637 51.613,-16.637 12.816,0 27.734,2.969 36.281,12.797 3.41,3.422 5.539,8.121 5.539,12.371 0,1.7 -0.422,5.141 -3.418,8.961 -5.527,7.668 -12.363,8.102 -28.148,11.52 -14.074,2.969 -28.148,4.691 -41.816,8.101 -9.375,2.539 -58.434,14.5 -58.872,60.59 0.438,16.207 6.84,28.149 9.825,32.848 10.672,16.633 35.843,36.691 81.89,36.691 16.657,0 59.754,-2.55 91.727,-39.691 l -36.254,-33.688"
             style="fill:#231f20;fill-opacity:1;fill-rule:nonzero;stroke:none"
             id="path28" /><path
             d="m 1162.11,783.301 c -9.39,13.64 -25.19,21.75 -41.82,21.75 -13.23,0 -24.32,-4.692 -33.28,-14.071 -17.08,-17.48 -16.62,-41.82 -16.62,-48.64 0,-20.899 3.81,-44.34 21.75,-58.012 4.24,-2.988 14.92,-10.246 30.28,-10.246 8.1,0 26.45,2.566 38.83,21.348 10.67,17.058 11.94,40.511 12.36,45.211 0,5.55 0,26.449 -11.5,42.66 z m -90.89,43.949 c 2.15,2.121 4.69,4.262 6.84,5.961 21.32,16.23 44.78,18.359 54.17,18.359 12.82,0 38.81,-3.422 61.86,-26.89 12.79,-13.239 32.01,-40.11 32.01,-84.899 0,-40.09 -16.23,-81.492 -52.49,-101.972 -18.77,-10.668 -36.25,-12.36 -44.35,-12.36 -11.11,0 -29.02,2.121 -49.08,19.199 -3.4,3 -6.39,5.961 -9.38,9.383 l 0,-22.179 -50.78,0 0,301.207 50.78,0 0.42,-105.809"
             style="fill:#231f20;fill-opacity:1;fill-rule:nonzero;stroke:none"
             id="path30" /><path
             d="m 1462.01,631.852 -51.2,0 -0.42,21.75 c -10.67,-9.801 -31.56,-26.864 -68.68,-26.864 -35.43,0 -52.91,15.364 -61.45,28.16 -13.63,20.051 -12.37,44.352 -12.37,67.391 l 0,122.871 51.62,0 0,-115.18 c -0.43,-17.492 -0.84,-38.421 17.06,-48.64 6.83,-4.27 16.64,-6.391 24.74,-6.391 24.75,0 37.12,16.192 41.4,23.883 8.52,16.227 7.68,39.246 8.1,55.887 l 0,90.441 51.2,0 0,-213.308"
             style="fill:#231f20;fill-opacity:1;fill-rule:nonzero;stroke:none"
             id="path32" /><path
             d="m 1566.95,814.879 c 3.41,6.402 7.68,12.793 12.79,17.48 17.06,16.661 44.8,17.481 50.78,17.481 l 4.27,0 0,-52.469 c -10.67,0 -51.62,0 -63.99,-39.242 -3.85,-11.938 -3.85,-22.59 -3.85,-34.969 l 0,-91.308 -49.5,0 0,213.308 49.5,0 0,-30.281"
             style="fill:#231f20;fill-opacity:1;fill-rule:nonzero;stroke:none"
             id="path34" /><path
             d="m 1810.12,769.211 c -3.41,11.539 -14.92,36.711 -49.49,36.711 -7.24,0 -24.31,-1.293 -37.97,-16.231 -14.94,-16.191 -14.5,-35.839 -14.5,-42.652 0,-6.82 0,-25.168 13.64,-40.539 2.15,-2.121 6.84,-6.809 13.65,-10.25 4.27,-2.109 12.8,-5.512 25.61,-5.512 20.48,0 32,8.094 37.97,14.492 14.49,14.52 14.49,33.29 14.49,40.098 0,11.953 -1.71,19.192 -3.4,23.883 z m 52.9,-99.371 c -0.42,-24.738 2.57,-55.051 -13.66,-76.82 -13.21,-17.911 -40.95,-32.43 -89.15,-32.43 -47.8,0 -71.26,13.25 -84.47,32.012 -5.11,7.679 -8.97,16.66 -13.24,34.968 l 56.31,-0.429 c 1.28,-4.262 2.15,-6.809 5.14,-10.653 11.08,-16.207 34.55,-15.789 38.38,-15.789 25.6,0 38.82,9.813 44.38,20.051 5.97,11.102 5.53,22.18 5.53,46.09 -23.88,-21.32 -53.74,-22.61 -64.41,-22.61 -12.8,0 -26.87,2.122 -38.82,7.668 -22.61,9.813 -53.33,35.422 -53.33,93.864 0,6.84 0,26.886 7.26,45.648 14.5,37.11 49.05,60.16 89.16,60.16 7.24,0 27.73,-0.851 45.22,-13.672 7.68,-5.539 13.22,-12.796 14.92,-15.339 l 0,22.601 50.78,0 0,-175.32"
             style="fill:#231f20;fill-opacity:1;fill-rule:nonzero;stroke:none"
             id="path36" /><path
             d="m 2148.73,2731.83 c -16.59,-5.07 -27.29,-20.31 -27.29,-36.81 0,-3.7 0.54,-7.48 1.67,-11.2 0,0 154.64,-508.1 180.39,-592.64 -70.93,0 -247.44,0.05 -247.44,0.05 -21.25,0 -38.46,-17.22 -38.46,-38.46 0,-21.26 17.19,-38.47 38.43,-38.47 l 299.37,-0.05 c 12.2,0 23.65,5.74 30.94,15.52 7.24,9.88 9.41,22.44 5.84,34.14 l -195.46,642.31 c -6.19,20.33 -27.69,31.77 -47.99,25.61"
             style="fill:#f57c14;fill-opacity:1;fill-rule:nonzero;stroke:none"
             id="path38" /><path
             d="m 1862.98,2501.39 c 0,-27.78 22.62,-50.4 50.39,-50.4 27.83,0 50.47,22.62 50.47,50.4 0,27.82 -22.64,50.45 -50.47,50.45 -27.77,0 -50.39,-22.63 -50.39,-50.45"
             style="fill:#f57c14;fill-opacity:1;fill-rule:nonzero;stroke:none"
             id="path40" /><path
             d="m 2851.54,2731.83 c 16.54,-5.07 27.21,-20.31 27.21,-36.81 0,-3.7 -0.48,-7.48 -1.66,-11.2 0,0 -154.6,-508.1 -180.37,-592.64 70.97,0 247.48,0.05 247.48,0.05 21.24,0 38.45,-17.22 38.45,-38.46 0,-21.26 -17.21,-38.47 -38.45,-38.47 l -299.34,-0.05 c -12.21,0 -23.69,5.74 -30.95,15.52 -7.24,9.88 -9.46,22.44 -5.92,34.14 l 195.52,642.31 c 6.19,20.33 27.66,31.77 48.03,25.61"
             style="fill:#f57c14;fill-opacity:1;fill-rule:nonzero;stroke:none"
             id="path42" /><path
             d="m 2451.76,2501.39 c 0,-27.78 22.61,-50.4 50.4,-50.4 27.8,0 50.45,22.62 50.45,50.4 0,27.82 -22.65,50.45 -50.45,50.45 -27.79,0 -50.4,-22.63 -50.4,-50.45"
             style="fill:#f57c14;fill-opacity:1;fill-rule:nonzero;stroke:none"
             id="path44" /><path
             d="m 3440.28,2731.83 c 16.61,-5.07 27.27,-20.31 27.27,-36.81 0,-3.7 -0.56,-7.48 -1.7,-11.2 0,0 -154.62,-508.1 -180.35,-592.64 70.93,0 247.41,0.05 247.41,0.05 21.28,0 38.51,-17.22 38.51,-38.46 0,-21.26 -17.22,-38.47 -38.46,-38.47 l -299.36,-0.05 c -12.19,0 -23.67,5.74 -30.89,15.52 -7.3,9.88 -9.46,22.44 -5.9,34.14 l 195.47,642.31 c 6.21,20.33 27.69,31.77 48,25.61"
             style="fill:#f57c14;fill-opacity:1;fill-rule:nonzero;stroke:none"
             id="path46" /><path
             d="m 3040.5,2501.39 c 0,-27.78 22.64,-50.4 50.44,-50.4 27.83,0 50.39,22.62 50.39,50.4 0,27.82 -22.56,50.45 -50.39,50.45 -27.8,0 -50.44,-22.63 -50.44,-50.45"
             style="fill:#f57c14;fill-opacity:1;fill-rule:nonzero;stroke:none"
             id="path48" /><path
             d="m 3629.26,2501.39 c 0,-27.78 22.66,-50.4 50.5,-50.4 27.74,0 50.41,22.62 50.41,50.4 0,27.82 -22.67,50.45 -50.41,50.45 -27.84,0 -50.5,-22.63 -50.5,-50.45"
             style="fill:#f57c14;fill-opacity:1;fill-rule:nonzero;stroke:none"
             id="path50" /><path
             d="m 2919.82,1860.04 c 0.51,-63.38 -48.68,-78.5 -68.55,-78.39 -19.44,0.14 -68.31,14.6 -68.64,78.39 36.3,0 100.84,0 137.19,0 z m -168.55,60.51 c -15.91,0 -29.26,-12.15 -30.66,-28.01 -4.37,-48.9 10.55,-95.93 40.96,-129.2 24.71,-27.06 56.59,-41.93 89.7,-41.93 33.09,0 64.95,14.76 89.54,41.54 30.36,33.01 45.3,80.17 41.18,129.46 -1.38,15.89 -14.73,28.14 -30.67,28.14 l -200.05,0"
             style="fill:#f57c14;fill-opacity:1;fill-rule:nonzero;stroke:none"
             id="path52" /><path
             d="m 2053.24,1921.85 c -19.64,0 -35.64,-15.99 -35.64,-35.68 0,-19.69 16,-35.67 35.64,-35.67 l 159.29,0 c 19.73,0 35.66,15.98 35.66,35.67 0,19.69 -15.93,35.68 -35.66,35.68 l -159.29,0"
             style="fill:#f57c14;fill-opacity:1;fill-rule:nonzero;stroke:none"
             id="path54" /><path
             d="m 2053.24,1814.02 c -19.64,0 -35.64,-15.94 -35.64,-35.65 0,-19.71 16,-35.68 35.64,-35.68 l 159.29,0 c 19.73,0 35.66,15.97 35.66,35.68 0,19.71 -15.93,35.65 -35.66,35.65 l -159.29,0"
             style="fill:#f57c14;fill-opacity:1;fill-rule:nonzero;stroke:none"
             id="path56" /><path
             d="m 3521.4,1866.56 c -0.29,-0.13 -29.39,-12.69 -66.09,-12.66 l -18.09,0 c -37.86,0 -67.18,12.58 -67.46,12.71 -18,7.8 -38.98,-0.32 -46.93,-18.31 -7.88,-17.91 0.11,-38.83 18,-46.84 4.31,-1.91 43.69,-18.84 96.39,-18.84 l 18.09,0 c 51.64,-0.06 90.9,16.93 95.18,18.9 17.87,8.07 25.82,28.97 17.84,46.87 -7.95,17.95 -28.98,26.05 -46.93,18.17"
             style="fill:#f57c14;fill-opacity:1;fill-rule:nonzero;stroke:none"
             id="path58" /><path
             d="m 2255.83,795.371 c -0.42,-20.922 0,-41.383 -0.86,-62.301 -0.85,-27.742 -4.69,-53.75 -23.47,-75.922 -13.65,-15.789 -39.25,-33.699 -87.45,-33.699 -11.1,0 -47.79,0.43 -77.23,23.473 -4.25,3.387 -14.07,11.93 -21.75,24.738 -15.78,27.711 -14.49,58.442 -14.49,121.149 l 0,139.5 28.14,0 0,-195.379 c 0.45,-16.231 1.28,-34.141 8.96,-49.481 7.69,-15.789 20.48,-23.051 26.03,-26.027 15.78,-8.543 32.43,-11.531 49.91,-11.531 7.69,0 45.22,0 66.56,25.191 17.06,20.477 17.06,47.34 17.06,71.656 l 0,185.571 28.59,0 0,-136.938"
             style="fill:#231f20;fill-opacity:1;fill-rule:nonzero;stroke:none"
             id="path60" /><path
             d="m 2457.18,631.109 0,105.821 c 0,27.289 0.43,43.5 -4.68,55.449 -3.84,10.68 -11.53,14.941 -15.37,17.492 -11.52,6.399 -23.03,6.399 -27.73,6.399 -4.69,0 -15.79,0 -26.89,-5.532 -14.92,-6.828 -26.86,-23.468 -30.7,-38.84 -2.15,-9.796 -2.15,-27.308 -2.57,-51.609 l 0,-89.18 -25.16,0 0,203.5 25.16,0 0,-36.238 c 1.72,5.109 4.69,13.219 14.51,22.598 8.1,7.66 22.6,17.929 49.5,17.929 37.95,0 55.01,-20.929 61.84,-34.988 7.26,-16.219 6.84,-32.43 7.26,-66.98 l 0,-105.821 -25.17,0"
             style="fill:#231f20;fill-opacity:1;fill-rule:nonzero;stroke:none"
             id="path62" /><path
             d="m 2548.47,631.109 0,203.5 24.75,0 0,-203.5 -24.75,0 z m 0,251.289 0,38.832 24.75,0 0,-38.832 -24.75,0"
             style="fill:#231f20;fill-opacity:1;fill-rule:nonzero;stroke:none"
             id="path64" /><path
             d="m 2682,631.109 -70.4,203.5 25.18,0 56.3,-165.507 62.74,165.507 24.72,0 -78.06,-203.5 -20.48,0"
             style="fill:#231f20;fill-opacity:1;fill-rule:nonzero;stroke:none"
             id="path66" /><path
             d="m 2962.71,753.988 c -5.99,52.461 -40.96,63.133 -63.13,63.133 -35.41,0 -52.06,-24.312 -57.6,-35.41 -3.84,-8.512 -6.4,-19.191 -7.69,-28.16 l 128.42,0.437 z m 29,-20.918 -157.83,-0.398 c -0.45,-16.66 1.7,-26.891 3.83,-34.152 4.27,-16.211 18.77,-49.911 65.26,-49.481 17.93,0 46.09,4.27 65.29,42.66 l 23.45,-6.82 c -2.12,-4.289 -7.23,-15.777 -15.78,-26.457 C 2964.85,645.199 2944.8,626 2903.4,626 c -7.24,0 -27.72,0.422 -46.92,10.672 -48.63,25.156 -50.33,84.898 -50.33,98.109 0,6.84 0.42,23.481 6.38,41.391 13.67,38.379 46.52,63.578 87.47,63.578 12.37,0 42.23,-2.57 65.28,-29.012 16.63,-18.359 26.43,-46.937 26.43,-71.679 l 0,-5.989"
             style="fill:#231f20;fill-opacity:1;fill-rule:nonzero;stroke:none"
             id="path68" /><path
             d="m 3043.76,631.109 0,203.5 25.17,0 0,-32.418 c 1.29,3.411 3.42,7.25 5.57,10.25 2.55,3.829 11.08,14.489 23.86,20.047 5.56,2.543 14.52,5.114 29.01,5.114 3.43,0 7.68,0 14.95,-0.852 l -0.43,-22.621 c -5.12,0.871 -9.81,1.301 -15.79,1.301 -31.13,0 -50.33,-18.36 -55.02,-48.211 -1.72,-10.68 -2.15,-24.321 -2.15,-48.219 l 0,-87.891 -25.17,0"
             style="fill:#231f20;fill-opacity:1;fill-rule:nonzero;stroke:none"
             id="path70" /><path
             d="m 3186.68,689.148 c 3.42,-14.066 18.77,-40.109 56.73,-40.109 19.22,0 31.59,5.543 37.55,10.231 8.96,6.832 14.5,18.8 14.5,29.46 0,6.391 -2.13,12.79 -5.54,17.899 -6.39,8.949 -16.64,14.07 -38.39,18.781 -20.05,4.692 -51.63,8.09 -66.12,25.59 -6.83,8.539 -10.68,20.898 -10.68,32 0.43,6.391 2.15,26.02 17.51,39.68 13.64,12.8 37.54,17.07 55.45,17.07 5.96,0 31.15,-0.449 49.91,-13.25 15.78,-11.5 20.47,-26.012 22.18,-32.84 l -23.88,-6.39 c -4.68,23.468 -29.03,30.281 -49.5,30.281 -16.62,0 -27.71,-3.821 -33.28,-7.68 -1.7,-0.851 -5.96,-4.269 -8.95,-8.961 -4.27,-7.25 -4.69,-14.488 -4.69,-17.5 0,-23.871 25.17,-28.57 42.67,-32.851 l 21.33,-4.25 c 17.9,-4.688 35.39,-10.668 46.49,-26.457 9.39,-12.801 9.81,-25.161 9.81,-31.122 0,-4.281 -0.42,-15.82 -6.4,-27.308 -8.1,-15.371 -28.58,-35.422 -69.53,-35.422 -12.37,0 -45.22,1.711 -68.27,30.73 -5.97,8.09 -9.8,15.36 -13.64,23.86 l 24.74,8.558"
             style="fill:#231f20;fill-opacity:1;fill-rule:nonzero;stroke:none"
             id="path72" /><path
             d="m 3376.94,631.109 0,203.5 24.75,0 0,-203.5 -24.75,0 z m 0,251.289 0,38.832 24.75,0 0,-38.832 -24.75,0"
             style="fill:#231f20;fill-opacity:1;fill-rule:nonzero;stroke:none"
             id="path74" /><path
             d="m 3554,636.672 c -5.54,-3.84 -15.8,-9.402 -32.43,-9.402 -2.14,0 -4.71,0 -6.83,0.441 -5.56,0.43 -20.91,1.699 -26.86,17.91 -3.44,8.961 -2.99,30.731 -2.99,40.527 l 0,127.141 -42.68,0 0,21.32 42.68,0 0,86.621 24.29,0 0,-86.621 44.82,0 0,-21.32 -44.82,0 0,-112.199 c 0.44,-7.25 0.44,-14.512 0,-21.77 0,-11.922 -0.42,-29.859 16.65,-29.859 10.25,0 20.48,7.269 28.17,12.801 l 0,-25.59"
             style="fill:#231f20;fill-opacity:1;fill-rule:nonzero;stroke:none"
             id="path76" /><path
             d="m 3661.92,601.68 c -18.78,-48.629 -26.45,-73.789 -58.88,-73.789 -14.07,0 -22.62,5.089 -26.86,8.089 l 0,25.59 c 11.49,-8.101 19.6,-9.82 26.43,-9.82 14.51,0 18.77,9.398 27.29,30.719 3,6.422 5.57,12.82 8.11,19.211 l 10.68,29.429 -70.39,203.5 24.31,0 59.31,-173.187 66.12,173.187 25.62,0 -91.74,-232.929"
             style="fill:#231f20;fill-opacity:1;fill-rule:nonzero;stroke:none"
             id="path78" /><path
             d="m 3989.14,818.422 c -6.39,0 -22.2,-0.871 -36.69,-11.551 -15.79,-11.922 -29.02,-34.121 -29.02,-76.34 0,-7.679 -0.86,-48.64 26.87,-70.41 6.41,-5.109 18.38,-11.93 37.97,-11.93 29.87,0 65.27,18.758 66.14,83.188 0.42,66.109 -32.85,87.043 -65.27,87.043 z m 86.6,-125.434 C 4062.93,652.031 4030.96,626 3987.84,626 c -14.07,0 -46.5,2.559 -70.36,34.121 -8.97,12.367 -20.93,34.141 -20.93,70.41 0,8.949 0.45,29.008 9.39,51.617 20.04,51.614 63.57,57.602 83.62,57.602 23.46,0 43.09,-6.418 59.73,-22.629 23.03,-21.32 31.55,-52.902 31.98,-83.18 0,-6.832 0,-23.043 -5.53,-40.953"
             style="fill:#231f20;fill-opacity:1;fill-rule:nonzero;stroke:none"
             id="path80" /><path
             d="m 4181.94,813.289 0,-182.18 -25.15,0 0,182.18 -44.79,0 0,21.32 44.79,0 0,38.832 c 0.43,21.75 -0.85,27.731 2.57,39.239 4.27,12.808 14.07,25.609 42.65,25.609 9.83,0 16.64,-1.277 26.01,-2.98 l 0,-24.75 c -4.26,1.703 -12.34,5.543 -24.31,5.543 -8.53,0 -12.37,-2.563 -14.92,-5.543 -8.08,-8.098 -6.85,-16.219 -6.85,-34.981 l 0,-40.969 46.08,0 0,-21.32 -46.08,0"
             style="fill:#231f20;fill-opacity:1;fill-rule:nonzero;stroke:none"
             id="path82" /><path
             d="m 2142.63,375.871 -58.88,-154.019 116.9,0 -58.02,154.019 z m 101.12,-267.902 -34.56,90.84 -134.82,0 -34.56,-90.84 -31.56,0 122.86,301.172 23.89,0 119.88,-301.172 -31.13,0"
             style="fill:#231f20;fill-opacity:1;fill-rule:nonzero;stroke:none"
             id="path84" /><path
             d="m 2360.61,139.5 c 13.67,-11.48 28.59,-11.949 35.43,-11.949 46.92,0 63.13,45.687 63.13,84.898 0,6.41 -0.42,20.082 -5.54,35.86 -12.38,38.82 -42.23,44.363 -58.03,44.363 -8.95,0 -18.77,-2.121 -26.44,-6.41 -15.36,-8.524 -24.31,-26 -27.73,-42.231 -2.13,-10.672 -2.57,-20.91 -2.99,-31.582 -0.85,-25.59 0.42,-55 22.17,-72.949 z m -22.17,171.941 0,-33.293 c 2.99,6.832 5.11,10.25 7.69,13.25 7.24,9.821 23.88,24.313 53.75,24.313 21.77,0 34.55,-5.981 42.23,-10.672 31.14,-19.609 43.08,-61.859 43.08,-95.98 0,-6.848 -0.42,-18.758 -4.26,-35 -3.85,-14.911 -21.76,-70.809 -81.05,-70.809 -31.99,0 -49.06,17.488 -55.89,28.172 -2.14,2.976 -3,4.68 -5.55,10.668 l 0,-142.09 -24.74,0 0,311.441 24.74,0"
             style="fill:#231f20;fill-opacity:1;fill-rule:nonzero;stroke:none"
             id="path86" /><path
             d="m 2585.02,139.5 c 13.66,-11.48 28.6,-11.949 35.4,-11.949 46.95,0 63.15,45.687 63.15,84.898 0,6.41 -0.41,20.082 -5.54,35.86 -12.38,38.82 -42.23,44.363 -58.03,44.363 -8.95,0 -18.76,-2.121 -26.45,-6.41 -15.35,-8.524 -24.32,-26 -27.72,-42.231 -2.14,-10.672 -2.56,-20.91 -2.99,-31.582 -0.85,-25.59 0.43,-55 22.18,-72.949 z m -22.18,171.941 0,-33.293 c 2.99,6.832 5.11,10.25 7.68,13.25 7.26,9.821 23.89,24.313 53.75,24.313 21.77,0 34.56,-5.981 42.24,-10.672 31.15,-19.609 43.08,-61.859 43.08,-95.98 0,-6.848 -0.42,-18.758 -4.26,-35 -3.84,-14.911 -21.76,-70.809 -81.06,-70.809 -31.99,0 -49.06,17.488 -55.9,28.172 -2.12,2.976 -2.96,4.68 -5.53,10.668 l 0,-142.09 -24.74,0 0,311.441 24.74,0"
             style="fill:#231f20;fill-opacity:1;fill-rule:nonzero;stroke:none"
             id="path88" /><path
             d="m 2762.08,107.969 25.5781,0 0,301.172 -25.5781,0 0,-301.172 z"
             style="fill:#231f20;fill-opacity:1;fill-rule:nonzero;stroke:none"
             id="path90" /><path
             d="m 2853.37,107.969 0,203.472 24.75,0 0,-203.472 -24.75,0 z m 0,251.261 0,38.821 24.75,0 0,-38.821 -24.75,0"
             style="fill:#231f20;fill-opacity:1;fill-rule:nonzero;stroke:none"
             id="path92" /><path
             d="m 3087.57,230.832 c -5.97,52.449 -40.93,63.117 -63.13,63.117 -35.41,0 -52.06,-24.308 -57.6,-35.429 -3.84,-8.508 -6.39,-19.192 -7.67,-28.161 l 128.4,0.473 z m 29.03,-20.922 -157.86,-0.43 c -0.42,-16.66 1.71,-26.859 3.84,-34.14 4.26,-16.192 18.78,-49.891 65.27,-49.461 17.91,0 46.08,4.269 65.27,42.641 l 23.48,-6.821 c -2.15,-4.25 -7.27,-15.789 -15.79,-26.449 -11.11,-13.219 -31.16,-32.418 -72.53,-32.418 -7.26,0 -27.74,0.418 -46.92,10.656 -48.66,25.16 -50.36,84.903 -50.36,98.114 0,6.859 0.44,23.48 6.4,41.41 13.66,38.386 46.5,63.547 87.47,63.547 12.37,0 42.23,-2.571 65.26,-29.008 16.65,-18.352 26.47,-46.942 26.47,-71.68 l 0,-5.961"
             style="fill:#231f20;fill-opacity:1;fill-rule:nonzero;stroke:none"
             id="path94" /><path
             d="m 3278.28,282.441 c -5.55,3.821 -17.07,10.231 -33.71,10.231 -5.11,0 -15.37,0 -26.44,-5.953 -17.51,-9.399 -35.43,-32.438 -35.43,-76.809 0,-6.832 -0.83,-82.762 60.59,-82.762 15.79,0 29.01,3.84 39.67,15.364 17.07,17.058 19.62,43.5 19.62,65.699 0.85,40.93 -7.24,61.859 -24.3,74.23 z m 23.89,-174.472 0,36.672 c -9.4,-26.871 -35.43,-41.391 -62.71,-41.391 -7.69,0 -25.17,1.301 -42.24,12.82 -40.97,26.852 -41.81,83.61 -41.81,93.84 0,12.36 1.7,66.559 43.94,93.43 7.26,4.269 22.62,12.371 43.94,12.371 16.63,0 33.28,-5.121 45.23,-16.211 9.38,-8.949 11.51,-14.941 13.65,-20.48 l 0,130.121 24.73,0 0,-301.172 -24.73,0"
             style="fill:#231f20;fill-opacity:1;fill-rule:nonzero;stroke:none"
             id="path96" /><path
             d="m 3528.26,198.809 c 0.86,-17.911 2.99,-25.571 6.82,-33.719 8.54,-18.762 31.15,-39.641 76.81,-39.641 5.98,0 19.18,0 34.14,4.27 27.72,8.5 49.05,29.429 49.05,59.711 0,4.691 -0.42,17.058 -8.09,29.031 -10.26,16.187 -27.34,23.437 -62.31,32.828 -21.76,5.539 -45.64,10.672 -66.14,20.481 -13.62,6.8 -43.49,23.859 -43.49,66.98 0,23.461 8.1,37.121 14.5,44.789 26.04,33.691 76.77,33.262 84.88,33.262 32.85,0 64.45,-8.961 86.22,-34.973 5.53,-6.828 11.07,-14.496 17.49,-31.129 l -26.47,-14.09 c -2.97,9.403 -6.39,17.911 -12.37,26.02 -8.51,12.371 -29.03,30.723 -65.71,30.723 -5.97,0 -37.99,-0.422 -56.75,-19.18 -5.54,-5.582 -14.07,-15.363 -14.07,-34.59 0,-10.633 2.98,-20.031 8.95,-28.141 13.25,-17.492 35.42,-22.609 55.03,-28.16 28.19,-7.242 66.17,-14.929 89.19,-34.14 9.39,-7.243 28.16,-26.02 28.16,-58.84 0,-15.813 -4.68,-45.223 -37.11,-68.692 -14.07,-9.82 -35.86,-21.328 -75.1,-21.328 -57.6,0 -99.83,24.75 -112.21,83.617 l 28.58,14.911"
             style="fill:#231f20;fill-opacity:1;fill-rule:nonzero;stroke:none"
             id="path98" /><path
             d="m 3908.81,259.809 c -8.96,22.632 -31.14,34.14 -55.02,34.14 -7.68,0 -25.62,-0.84 -42.22,-14.929 -26.47,-22.598 -26.91,-60.559 -26.91,-69.54 0,-5.98 0.86,-40.96 19.2,-63.57 2.99,-3.398 8.96,-9.808 20.07,-14.922 5.12,-2.539 14.07,-5.957 27.71,-5.957 25.6,0 43.08,11.899 55.04,34.117 l 25.58,-5.988 c -5.54,-11.519 -12.34,-21.738 -22.16,-30.281 -9.39,-8.527 -28.16,-20.047 -59.29,-20.047 -11.11,0 -38.84,0.848 -62.3,23.047 -30.3,28.582 -31.14,70.812 -31.14,82.332 0,15.34 1.7,28.141 6.4,42.211 13.21,41.816 47.33,66.137 91.29,66.137 32.41,0 49.47,-12.348 59.29,-22.61 11.52,-11.937 15.79,-22.609 17.91,-28.57 l -23.45,-5.57"
             style="fill:#231f20;fill-opacity:1;fill-rule:nonzero;stroke:none"
             id="path100" /><path
             d="m 3977.08,107.969 0,203.472 24.74,0 0,-203.472 -24.74,0 z m 0,251.261 0,38.821 24.74,0 0,-38.821 -24.74,0"
             style="fill:#231f20;fill-opacity:1;fill-rule:nonzero;stroke:none"
             id="path102" /><path
             d="m 4211.26,230.832 c -5.96,52.449 -40.93,63.117 -63.12,63.117 -35.4,0 -52.06,-24.308 -57.62,-35.429 -3.82,-8.508 -6.38,-19.192 -7.65,-28.161 l 128.39,0.473 z m 29.01,-20.922 -157.83,-0.43 c -0.42,-16.66 1.7,-26.859 3.83,-34.14 4.25,-16.192 18.78,-49.891 65.26,-49.461 17.93,0 46.07,4.269 65.27,42.641 l 23.47,-6.821 c -2.12,-4.25 -7.24,-15.789 -15.78,-26.449 -11.09,-13.219 -31.14,-32.418 -72.51,-32.418 -7.26,0 -27.74,0.418 -46.93,10.656 -48.65,25.16 -50.35,84.903 -50.35,98.114 0,6.859 0.43,23.48 6.39,41.41 13.67,38.386 46.49,63.547 87.47,63.547 12.39,0 42.23,-2.571 65.27,-29.008 16.63,-18.352 26.44,-46.942 26.44,-71.68 l 0,-5.961"
             style="fill:#231f20;fill-opacity:1;fill-rule:nonzero;stroke:none"
             id="path104" /><path
             d="m 4425.43,107.969 0,105.781 c 0,27.281 0.43,43.512 -4.7,55.449 -3.82,10.672 -11.51,14.961 -15.36,17.52 -11.51,6.39 -23.01,6.39 -27.72,6.39 -4.67,0 -15.79,0 -26.88,-5.558 -14.93,-6.813 -26.87,-23.469 -30.72,-38.832 -2.13,-9.789 -2.13,-27.27 -2.54,-51.61 l 0,-89.14 -25.19,0 0,203.472 25.19,0 0,-36.269 c 1.67,5.117 4.67,13.226 14.5,22.629 8.08,7.679 22.61,17.91 49.48,17.91 37.94,0 55.02,-20.91 61.85,-34.973 7.26,-16.238 6.84,-32.429 7.26,-66.988 l 0,-105.781 -25.17,0"
             style="fill:#231f20;fill-opacity:1;fill-rule:nonzero;stroke:none"
             id="path106" /><path
             d="m 4646.95,269.238 c -8.96,22.59 -31.12,34.141 -55.02,34.141 -7.69,0 -25.6,-0.867 -42.23,-14.938 -26.44,-22.621 -26.88,-60.582 -26.88,-69.55 0,-5.95 0.87,-40.942 19.22,-63.559 2.99,-3.422 8.93,-9.82 20.05,-14.922 5.09,-2.57 14.07,-5.988 27.69,-5.988 25.62,0 43.11,11.957 55.07,34.148 l 25.59,-6 c -5.53,-11.488 -12.39,-21.73 -22.19,-30.269 -9.39,-8.551 -28.17,-20.051 -59.29,-20.051 -11.1,0 -38.84,0.871 -62.3,23.02 -30.29,28.589 -31.14,70.839 -31.14,82.359 0,15.34 1.7,28.141 6.42,42.23 13.19,41.801 47.33,66.121 91.28,66.121 32.43,0 49.49,-12.371 59.31,-22.601 11.5,-11.957 15.77,-22.617 17.91,-28.609 l -23.49,-5.532"
             style="fill:#231f20;fill-opacity:1;fill-rule:nonzero;stroke:none"
             id="path108" /><path
             d="m 4858.58,240.23 c -5.99,52.469 -40.96,63.149 -63.16,63.149 -35.39,0 -52.03,-24.32 -57.6,-35.41 -3.82,-8.559 -6.39,-19.207 -7.67,-28.168 l 128.43,0.429 z m 28.98,-20.902 -157.83,-0.437 c -0.43,-16.629 1.7,-26.871 3.84,-34.11 4.25,-16.211 18.78,-49.929 65.27,-49.511 17.91,0 46.07,4.269 65.28,42.679 l 23.44,-6.808 c -2.12,-4.289 -7.23,-15.809 -15.77,-26.461 -11.09,-13.231 -31.14,-32.43 -72.53,-32.43 -7.25,0 -27.73,0.422 -46.91,10.68 -48.65,25.16 -50.35,84.851 -50.35,98.09 0,6.839 0.42,23.5 6.4,41.378 13.65,38.411 46.5,63.582 87.45,63.582 12.4,0 42.25,-2.539 65.28,-29.011 16.63,-18.328 26.43,-46.938 26.43,-71.66 l 0,-5.981"
             style="fill:#231f20;fill-opacity:1;fill-rule:nonzero;stroke:none"
             id="path110" /><path
             d="m 4946.87,175.398 c 3.44,-14.109 18.76,-40.128 56.75,-40.128 19.2,0 31.55,5.57 37.56,10.242 8.95,6.847 14.49,18.777 14.49,29.449 0,6.391 -2.15,12.769 -5.54,17.93 -6.38,8.937 -16.66,14.058 -38.41,18.757 -20.05,4.711 -51.63,8.102 -66.12,25.59 -6.84,8.532 -10.67,20.922 -10.67,32 0.42,6.403 2.14,26.012 17.48,39.66 13.67,12.821 37.54,17.082 55.47,17.082 5.96,0 31.15,-0.421 49.93,-13.218 15.77,-11.543 20.48,-26.043 22.18,-32.852 l -23.9,-6.39 c -4.69,23.449 -29.01,30.289 -49.48,30.289 -16.66,0 -27.74,-3.868 -33.29,-7.688 -1.7,-0.871 -5.95,-4.293 -8.94,-8.973 -4.29,-7.238 -4.69,-14.488 -4.69,-17.488 0,-23.89 25.17,-28.558 42.65,-32.84 l 21.35,-4.269 c 17.89,-4.692 35.37,-10.68 46.49,-26.442 9.39,-12.82 9.81,-25.187 9.81,-31.148 0,-4.289 -0.42,-15.789 -6.41,-27.289 -8.09,-15.371 -28.58,-35.422 -69.54,-35.422 -12.37,0 -45.22,1.719 -68.26,30.73 -5.97,8.102 -9.81,15.34 -13.63,23.872 l 24.72,8.546"
             style="fill:#231f20;fill-opacity:1;fill-rule:nonzero;stroke:none"
             id="path112" /><path
             d="m 269.477,1154.01 -56.872,0 0,137.27 -129.5816,0 0,-137.27 -56.8711,0 0,301.92 56.8711,0 0,-113.76 129.5816,0 0,113.76 56.872,0 0,-301.92"
             style="fill:#231f20;fill-opacity:1;fill-rule:nonzero;stroke:none"
             id="path114" /><path
             d="m 427.273,1328.06 c -4.695,0 -17.527,-0.86 -29.074,-8.12 -11.125,-7.28 -26.086,-24.81 -26.086,-56.88 0,-10.26 1.282,-19.25 4.27,-29.08 3.851,-10.27 18.398,-39.35 53.457,-39.35 38.926,0 56.039,34.22 55.164,68 -1.274,33.36 -20.098,65.43 -57.731,65.43 z m 102.661,-114.17 c -8.579,-21.82 -36.372,-66.3 -100.094,-66.3 -8.977,0 -27.356,0.85 -48.317,9.85 -22.23,10.25 -62.871,39.76 -62.871,104.34 0,23.09 5.996,40.2 9.414,47.89 8.555,21.39 36.348,64.58 100.075,64.58 8.121,0 26.941,-0.86 47.039,-9.84 23.09,-9.84 62.879,-38.49 63.293,-102.63 0,-7.7 -0.414,-27.8 -8.539,-47.89"
             style="fill:#231f20;fill-opacity:1;fill-rule:nonzero;stroke:none"
             id="path116" /><path
             d="m 765.559,1214.31 c -3.418,-8.98 -7.707,-17.96 -13.684,-26.09 -19.246,-26.1 -50.898,-40.63 -82.973,-40.63 -7.707,0 -25.234,1.29 -44.468,9.85 -56.883,26.07 -61.157,85.52 -61.157,103.48 0,26.08 7.274,51.32 23.09,71.84 10.258,13.69 37.195,41.49 85.102,41.49 13.683,0 27.363,-2.57 39.777,-7.69 12.402,-5.13 38.055,-20.11 52.176,-53.04 l -45.777,-21.38 c -3.411,11.56 -9.825,18.82 -12.809,21.8 -6.004,6 -16.25,14.55 -35.934,14.55 -14.957,0 -26.945,-5.14 -36.769,-16.67 -15.824,-18.4 -15.824,-42.35 -15.824,-49.61 0,-11.12 1.699,-19.25 2.984,-23.54 6.422,-24.78 23.953,-43.18 50.898,-43.18 36.766,0 47.899,32.49 51.743,41.9 l 43.625,-23.08"
             style="fill:#231f20;fill-opacity:1;fill-rule:nonzero;stroke:none"
             id="path118" /><path
             d="m 845.094,1346.01 c 4.269,4.73 9.41,9.41 20.515,15.83 8.129,4.72 23.536,12.41 47.047,12.41 23.535,0 49.192,-8.55 63.301,-28.24 13.246,-18.81 13.246,-38.47 13.246,-59.85 l 0,-132.15 -50.437,0 0,117.61 c -0.438,17.09 0.828,32.49 -13.704,44.89 -4.277,3.85 -12.406,8.99 -26.507,8.99 -17.535,0 -31.66,-7.28 -42.344,-20.52 -4.281,-5.14 -7.695,-11.56 -9.41,-17.98 -1.707,-6.4 -1.707,-11.53 -1.707,-18.39 l 0,-114.6 -51.317,0 0,301.92 51.317,0 0,-109.92"
             style="fill:#231f20;fill-opacity:1;fill-rule:nonzero;stroke:none"
             id="path120" /><path
             d="m 1182.51,1300.69 c -4.27,8.98 -9.82,14.11 -13.26,17.1 -13.26,11.56 -27.36,15.42 -44.9,15.42 -2.14,0 -16.69,0 -26.1,-6.43 -7.67,-5.13 -9.4,-11.98 -9.4,-15.82 0.44,-7.26 5.56,-12.41 6.85,-13.27 5.55,-4.27 19.67,-7.69 36.78,-10.69 11.54,-2.13 23.09,-3.84 34.65,-6.4 11.54,-2.57 24.37,-6.42 33.78,-13.27 7.68,-5.55 23.5,-20.53 23.5,-46.6 0,-10.28 -2.56,-20.11 -7.26,-29.1 -10.27,-19.65 -36.78,-44.04 -88.94,-44.04 -40.2,0 -68.86,13.69 -82.12,21.82 -7.27,4.69 -14.11,10.25 -20.54,16.66 l 38.5,31.22 c 1.71,-2.12 4.28,-5.97 9.84,-10.68 18.4,-15.82 45.76,-16.68 51.75,-16.68 12.82,0 27.79,2.98 36.35,12.83 3.41,3.42 5.55,8.12 5.55,12.41 0,1.7 -0.41,5.12 -3.41,8.97 -5.57,7.69 -12.42,8.12 -28.24,11.55 -14.09,2.98 -28.23,4.7 -41.91,8.12 -9.41,2.57 -58.58,14.55 -59.01,60.73 0.43,16.25 6.84,28.22 9.84,32.93 10.68,16.67 35.91,36.78 82.11,36.78 16.67,0 59.86,-2.57 91.94,-39.77 l -36.35,-33.79"
             style="fill:#231f20;fill-opacity:1;fill-rule:nonzero;stroke:none"
             id="path122" /><path
             d="m 1451.5,1214.31 c -3.4,-8.98 -7.69,-17.96 -13.68,-26.09 -19.24,-26.1 -50.89,-40.63 -82.97,-40.63 -7.69,0 -25.23,1.29 -44.48,9.85 -56.86,26.07 -61.14,85.52 -61.14,103.48 0,26.08 7.26,51.32 23.09,71.84 10.26,13.69 37.21,41.49 85.1,41.49 13.68,0 27.37,-2.57 39.78,-7.69 12.39,-5.13 38.05,-20.11 52.18,-53.04 l -45.77,-21.38 c -3.42,11.56 -9.85,18.82 -12.84,21.8 -5.98,6 -16.24,14.55 -35.92,14.55 -14.97,0 -26.94,-5.14 -36.76,-16.67 -15.83,-18.4 -15.83,-42.35 -15.83,-49.61 0,-11.12 1.71,-19.25 2.98,-23.54 6.42,-24.78 23.95,-43.18 50.89,-43.18 36.78,0 47.91,32.49 51.76,41.9 l 43.61,-23.08"
             style="fill:#231f20;fill-opacity:1;fill-rule:nonzero;stroke:none"
             id="path124" /><path
             d="m 1531.05,1346.01 c 4.28,4.73 9.41,9.41 20.53,15.83 8.13,4.72 23.51,12.41 47.04,12.41 23.52,0 49.18,-8.55 63.3,-28.24 13.26,-18.81 13.26,-38.47 13.26,-59.85 l 0,-132.15 -50.48,0 0,117.61 c -0.42,17.09 0.87,32.49 -13.68,44.89 -4.27,3.85 -12.4,8.99 -26.52,8.99 -17.53,0 -31.63,-7.28 -42.33,-20.52 -4.27,-5.14 -7.7,-11.56 -9.4,-17.98 -1.72,-6.4 -1.72,-11.53 -1.72,-18.39 l 0,-114.6 -51.33,0 0,301.92 51.33,0 0,-109.92"
             style="fill:#231f20;fill-opacity:1;fill-rule:nonzero;stroke:none"
             id="path126" /><path
             d="m 1923.21,1154.01 -51.32,0 -0.43,21.81 c -10.7,-9.84 -31.65,-26.94 -68.86,-26.94 -35.49,0 -53.02,15.39 -61.57,28.22 -13.7,20.1 -12.42,44.48 -12.42,67.58 l 0,123.16 51.76,0 0,-115.47 c -0.43,-17.53 -0.86,-38.48 17.11,-48.76 6.84,-4.27 16.68,-6.41 24.81,-6.41 24.79,0 37.2,16.26 41.47,23.94 8.54,16.25 7.7,39.35 8.13,56.03 l 0,90.67 51.32,0 0,-213.83"
             style="fill:#231f20;fill-opacity:1;fill-rule:nonzero;stroke:none"
             id="path128" /><path
             d="m 1979.23,1154.01 52.168,0 0,301.918 -52.168,0 0,-301.918 z"
             style="fill:#231f20;fill-opacity:1;fill-rule:nonzero;stroke:none"
             id="path130" /><path
             d="m 2228.97,1288.71 c -0.43,2.57 -1.28,9.84 -4.28,17.11 -4.69,10.27 -15.82,27.39 -43.61,27.39 -11.12,0 -17.12,-2.15 -21.39,-3.86 -23.95,-9.84 -29.51,-33.78 -30.79,-41.07 l 100.07,0.43 z m -101.77,-38.06 c 0.85,-6.4 2.98,-19.67 13.68,-32.5 7.25,-8.98 20.1,-20.51 46.62,-20.51 26.51,0 41.9,12.39 48.75,19.65 1.69,1.73 4.27,5.14 7.26,9.85 l 43.63,-25.24 c -3.43,-4.7 -9.41,-12.83 -19.68,-22.24 -11.98,-11.11 -40.62,-32.07 -84.68,-32.07 -13.68,0 -47.46,1.72 -76.55,28.66 -24.37,23.09 -33.36,52.6 -33.36,85.96 0,17.95 2.57,35.06 9.41,51.31 9.41,21.39 35.93,60.73 97.93,60.73 47.91,0 73.15,-24.8 84.26,-41.04 9.83,-14.99 19.67,-41.07 20.95,-82.56 l -158.22,0"
             style="fill:#231f20;fill-opacity:1;fill-rule:nonzero;stroke:none"
             id="path132" /></g></g></g></g></svg>