<?xml version="1.0" encoding="UTF-8" standalone="no"?>
<svg
   xmlns:dc="http://purl.org/dc/elements/1.1/"
   xmlns:cc="http://creativecommons.org/ns#"
   xmlns:rdf="http://www.w3.org/1999/02/22-rdf-syntax-ns#"
   xmlns:svg="http://www.w3.org/2000/svg"
   xmlns="http://www.w3.org/2000/svg"
   xmlns:sodipodi="http://sodipodi.sourceforge.net/DTD/sodipodi-0.dtd"
   xmlns:inkscape="http://www.inkscape.org/namespaces/inkscape"
   sodipodi:docname="pn_logo_long.svg"
   inkscape:version="0.92.5 (2060ec1f9f, 2020-04-08)"
   version="1.1"
   id="svg4258"
   viewBox="0 0 2072.8342 354.3307"
   height="100mm"
   width="585mm">
  <defs
     id="defs4260" />
  <sodipodi:namedview
     inkscape:guide-bbox="true"
     showguides="true"
     inkscape:snap-object-midpoints="true"
     inkscape:snap-others="true"
     inkscape:snap-path-mask="true"
     inkscape:snap-path-clip="true"
     objecttolerance="20"
     gridtolerance="10000"
     inkscape:document-rotation="0"
     inkscape:window-maximized="1"
     inkscape:window-y="0"
     inkscape:window-x="1920"
     inkscape:window-height="1403"
     inkscape:window-width="2560"
     showgrid="false"
     inkscape:current-layer="text874"
     inkscape:document-units="px"
     inkscape:cy="379.23885"
     inkscape:cx="1208.4281"
     inkscape:zoom="0.5"
     inkscape:pageshadow="2"
     inkscape:pageopacity="0.0"
     borderopacity="1.0"
     bordercolor="#666666"
     pagecolor="#ffffff"
     id="base"
     inkscape:snap-page="true">
    <sodipodi:guide
       position="353.29759,283.46356"
       orientation="0,1"
       id="guide876"
       inkscape:locked="false" />
    <sodipodi:guide
       position="353.29759,70.866"
       orientation="0,1"
       id="guide878"
       inkscape:locked="false" />
  </sodipodi:namedview>
  <metadata
     id="metadata4263">
    <rdf:RDF>
      <cc:Work
         rdf:about="">
        <dc:format>image/svg+xml</dc:format>
        <dc:type
           rdf:resource="http://purl.org/dc/dcmitype/StillImage" />
        <dc:title />
      </cc:Work>
    </rdf:RDF>
  </metadata>
  <g
     transform="translate(0,-698.03147)"
     id="layer1"
     inkscape:groupmode="layer"
     inkscape:label="Ebene 1">
    <g
       id="g2498"
       transform="matrix(1.7336773,0,0,1.7336773,-377.27484,-582.57361)">
      <g
         id="g969"
         transform="translate(-1.4353558)">
        <g
           transform="matrix(0.9823743,0,0,0.98573693,98.04603,10.566121)"
           id="g987">
          <rect
             inkscape:export-ydpi="4.9000001"
             inkscape:export-xdpi="4.9000001"
             y="766.27893"
             x="245.58862"
             height="152.0473"
             width="152.0473"
             id="rect2985-2-2-9"
             style="display:inline;fill:#262626;fill-opacity:1;stroke-width:0.99999994;enable-background:new" />
          <rect
             inkscape:export-ydpi="4.9000001"
             inkscape:export-xdpi="4.9000001"
             y="738.63391"
             x="259.41135"
             height="27.644886"
             width="13.822487"
             id="rect3763-3-8-5-74"
             style="display:inline;fill:#999999;stroke-width:0.99999994;enable-background:new" />
          <rect
             inkscape:export-ydpi="4.9000001"
             inkscape:export-xdpi="4.9000001"
             y="738.63379"
             x="287.05624"
             height="27.644974"
             width="13.822487"
             id="rect3763-6-9-7-9"
             style="display:inline;fill:#999999;stroke-width:0.99999994;enable-background:new" />
          <rect
             inkscape:export-ydpi="4.9000001"
             inkscape:export-xdpi="4.9000001"
             y="738.63379"
             x="314.70129"
             height="27.644974"
             width="13.822487"
             id="rect3763-7-7-4-17"
             style="display:inline;fill:#999999;stroke-width:0.99999994;enable-background:new" />
          <rect
             inkscape:export-ydpi="4.9000001"
             inkscape:export-xdpi="4.9000001"
             y="738.63379"
             x="342.34631"
             height="27.644974"
             width="13.822487"
             id="rect3763-5-3-9-0"
             style="display:inline;fill:#999999;stroke-width:0.99999994;enable-background:new" />
          <rect
             inkscape:export-ydpi="4.9000001"
             inkscape:export-xdpi="4.9000001"
             y="738.63391"
             x="369.99115"
             height="27.644974"
             width="13.822487"
             id="rect3763-35-6-9-6"
             style="display:inline;fill:#999999;stroke-width:0.99999994;enable-background:new" />
          <rect
             inkscape:export-ydpi="4.9000001"
             inkscape:export-xdpi="4.9000001"
             y="918.32642"
             x="259.41135"
             height="27.644886"
             width="13.822487"
             id="rect3763-3-2-3-4-08"
             style="display:inline;fill:#999999;stroke-width:0.99999994;enable-background:new" />
          <rect
             inkscape:export-ydpi="4.9000001"
             inkscape:export-xdpi="4.9000001"
             y="918.32642"
             x="287.05624"
             height="27.644974"
             width="13.822487"
             id="rect3763-6-6-2-5-5"
             style="display:inline;fill:#999999;stroke-width:0.99999994;enable-background:new" />
          <rect
             inkscape:export-ydpi="4.9000001"
             inkscape:export-xdpi="4.9000001"
             y="918.32642"
             x="314.70129"
             height="27.644974"
             width="13.822487"
             id="rect3763-7-1-0-9-3"
             style="display:inline;fill:#999999;stroke-width:0.99999994;enable-background:new" />
          <rect
             inkscape:export-ydpi="4.9000001"
             inkscape:export-xdpi="4.9000001"
             y="918.32642"
             x="342.34631"
             height="27.644974"
             width="13.822487"
             id="rect3763-5-8-6-3-94"
             style="display:inline;fill:#999999;stroke-width:0.99999994;enable-background:new" />
          <rect
             inkscape:export-ydpi="4.9000001"
             inkscape:export-xdpi="4.9000001"
             y="918.32642"
             x="369.99115"
             height="27.644974"
             width="13.822487"
             id="rect3763-35-7-1-5-1"
             style="display:inline;fill:#999999;stroke-width:0.99999994;enable-background:new" />
          <rect
             transform="rotate(90)"
             inkscape:export-ydpi="4.9000001"
             inkscape:export-xdpi="4.9000001"
             y="-425.28119"
             x="780.10132"
             height="27.644886"
             width="13.822487"
             id="rect3763-3-9-5-7-5"
             style="display:inline;fill:#999999;stroke-width:0.99999994;enable-background:new" />
          <rect
             transform="rotate(90)"
             inkscape:export-ydpi="4.9000001"
             inkscape:export-xdpi="4.9000001"
             y="-425.28119"
             x="807.74634"
             height="27.644974"
             width="13.822487"
             id="rect3763-6-2-54-0-4"
             style="display:inline;fill:#999999;stroke-width:0.99999994;enable-background:new" />
          <rect
             transform="rotate(90)"
             inkscape:export-ydpi="4.9000001"
             inkscape:export-xdpi="4.9000001"
             y="-425.28119"
             x="835.39136"
             height="27.644974"
             width="13.822487"
             id="rect3763-7-0-7-81-1"
             style="display:inline;fill:#999999;stroke-width:0.99999994;enable-background:new" />
          <rect
             transform="rotate(90)"
             inkscape:export-ydpi="4.9000001"
             inkscape:export-xdpi="4.9000001"
             y="-425.28119"
             x="863.03638"
             height="27.644974"
             width="13.822487"
             id="rect3763-5-2-6-9-5"
             style="display:inline;fill:#999999;stroke-width:0.99999994;enable-background:new" />
          <rect
             transform="rotate(90)"
             inkscape:export-ydpi="4.9000001"
             inkscape:export-xdpi="4.9000001"
             y="-425.28119"
             x="890.68127"
             height="27.644974"
             width="13.822487"
             id="rect3763-35-3-5-9-5"
             style="display:inline;fill:#999999;stroke-width:0.99999994;enable-background:new" />
          <rect
             transform="rotate(90)"
             inkscape:export-ydpi="4.9000001"
             inkscape:export-xdpi="4.9000001"
             y="-245.58862"
             x="780.10132"
             height="27.644886"
             width="13.822487"
             id="rect3763-3-9-7-6-7-4"
             style="display:inline;fill:#999999;stroke-width:0.99999994;enable-background:new" />
          <rect
             transform="rotate(90)"
             inkscape:export-ydpi="4.9000001"
             inkscape:export-xdpi="4.9000001"
             y="-245.58862"
             x="807.74634"
             height="27.644974"
             width="13.822487"
             id="rect3763-6-2-5-9-8-9"
             style="display:inline;fill:#999999;stroke-width:0.99999994;enable-background:new" />
          <rect
             transform="rotate(90)"
             inkscape:export-ydpi="4.9000001"
             inkscape:export-xdpi="4.9000001"
             y="-245.58862"
             x="835.39136"
             height="27.644974"
             width="13.822487"
             id="rect3763-7-0-9-3-2-8"
             style="display:inline;fill:#999999;stroke-width:0.99999994;enable-background:new" />
          <rect
             transform="rotate(90)"
             inkscape:export-ydpi="4.9000001"
             inkscape:export-xdpi="4.9000001"
             y="-245.58862"
             x="863.03638"
             height="27.644974"
             width="13.822487"
             id="rect3763-5-2-2-7-5-38"
             style="display:inline;fill:#999999;stroke-width:0.99999994;enable-background:new" />
          <rect
             transform="rotate(90)"
             inkscape:export-ydpi="4.9000001"
             inkscape:export-xdpi="4.9000001"
             y="-245.58862"
             x="890.68127"
             height="27.644974"
             width="13.822487"
             id="rect3763-35-3-2-4-3-5"
             style="display:inline;fill:#999999;stroke-width:0.99999994;enable-background:new" />
          <circle
             r="62.975746"
             cy="842.30261"
             cx="321.61255"
             id="path4520-4-2"
             style="fill:#666666;fill-opacity:1;stroke:#666666;stroke-width:0.774845;stroke-linecap:square;stroke-linejoin:round;stroke-miterlimit:4;stroke-dasharray:none;stroke-opacity:1" />
          <path
             inkscape:connector-curvature="0"
             style="fill:none;stroke:#000000;stroke-width:0;stroke-linecap:butt;stroke-linejoin:miter;stroke-miterlimit:4;stroke-dasharray:none;stroke-opacity:1"
             d="m 315.53648,842.30626 h 12.15191"
             id="path960-0-7" />
          <path
             inkscape:connector-curvature="0"
             style="fill:none;stroke:#000000;stroke-width:0;stroke-linecap:butt;stroke-linejoin:miter;stroke-miterlimit:4;stroke-dasharray:none;stroke-opacity:1"
             d="m 321.61599,836.22667 0.2308,12.62619"
             id="path962-6-1" />
          <g
             style="stroke:#666666;stroke-width:0.93447;stroke-miterlimit:4;stroke-dasharray:none;stroke-opacity:1"
             transform="matrix(1.5048634,0,0,1.5048634,-289.56335,-1175.8114)"
             id="g4640-5-7">
            <path
               inkscape:connector-curvature="0"
               style="fill:#ff6000;fill-opacity:1;stroke:#666666;stroke-width:0.93447;stroke-linecap:square;stroke-linejoin:miter;stroke-miterlimit:4;stroke-dasharray:none;stroke-opacity:1"
               d="m 372.87529,1324.1931 c 0,0 -3.24682,11.1439 -3.24682,16.8706 0,5.7268 3.24683,16.8707 3.24683,16.8707 0,0 11.27432,-2.7601 16.23383,-5.6235 4.95952,-2.8634 12.98702,-11.2472 12.98702,-11.2472 0,0 -8.0275,-8.3838 -12.98702,-11.2471 -4.95951,-2.8634 -16.23384,-5.6235 -16.23384,-5.6235"
               id="path4382-0-0"
               sodipodi:nodetypes="cacacsc" />
            <path
               inkscape:connector-curvature="0"
               id="path4202-7-9-2-6-6"
               d="m 382.61558,1341.0637 -9.74029,-16.8706"
               style="fill:none;stroke:#666666;stroke-width:0.93447;stroke-linecap:butt;stroke-linejoin:miter;stroke-miterlimit:4;stroke-dasharray:none;stroke-opacity:1" />
            <path
               inkscape:connector-curvature="0"
               style="fill:none;stroke:#666666;stroke-width:0.93447;stroke-linecap:butt;stroke-linejoin:miter;stroke-miterlimit:4;stroke-dasharray:none;stroke-opacity:1"
               d="m 382.61558,1341.0637 -9.74028,16.8707"
               id="path4202-7-2-46-9" />
            <path
               inkscape:connector-curvature="0"
               id="path4202-3-2-2"
               d="m 382.61558,1341.0637 h 19.48057"
               style="fill:none;stroke:#666666;stroke-width:0.93447;stroke-linecap:butt;stroke-linejoin:miter;stroke-miterlimit:4;stroke-dasharray:none;stroke-opacity:1" />
          </g>
          <g
             id="g954-5-1"
             style="stroke:#666666;stroke-width:1.4062233;stroke-miterlimit:4;stroke-dasharray:none;stroke-opacity:1"
             transform="translate(-25.880005,-458.89839)">
            <path
               inkscape:connector-curvature="0"
               sodipodi:nodetypes="cacacsc"
               id="path4382-6-8-7"
               d="m 397.54177,1326.5928 c 0,0 4.88602,-16.7701 4.88602,-25.388 0,-8.618 -4.88603,-25.3881 -4.88603,-25.3881 0,0 -16.96631,4.1536 -24.4297,8.4626 -7.4634,4.309 -19.54369,16.9255 -19.54369,16.9255 0,0 12.08029,12.6165 19.54369,16.9254 7.46339,4.309 24.42971,8.4626 24.42971,8.4626"
               style="fill:#ff6000;fill-opacity:1;stroke:#666666;stroke-width:1.4062233;stroke-linecap:square;stroke-linejoin:miter;stroke-miterlimit:4;stroke-dasharray:none;stroke-opacity:1" />
            <path
               inkscape:connector-curvature="0"
               style="fill:none;stroke:#666666;stroke-width:1.4062233;stroke-linecap:butt;stroke-linejoin:miter;stroke-miterlimit:4;stroke-dasharray:none;stroke-opacity:1"
               d="m 382.88397,1301.2048 14.6578,25.388"
               id="path4202-7-9-2-8-6-7" />
            <path
               inkscape:connector-curvature="0"
               id="path4202-7-2-8-2-9"
               d="m 382.88397,1301.2048 14.65779,-25.3881"
               style="fill:none;stroke:#666666;stroke-width:1.4062233;stroke-linecap:butt;stroke-linejoin:miter;stroke-miterlimit:4;stroke-dasharray:none;stroke-opacity:1" />
            <path
               inkscape:connector-curvature="0"
               style="fill:none;stroke:#666666;stroke-width:1.4062233;stroke-linecap:butt;stroke-linejoin:miter;stroke-miterlimit:4;stroke-dasharray:none;stroke-opacity:1"
               d="m 382.88397,1301.2048 h -29.3156"
               id="path4202-3-43-84-7" />
          </g>
          <g
             style="stroke:#666666;stroke-width:0.93447;stroke-miterlimit:4;stroke-dasharray:none;stroke-opacity:1"
             id="g4640-1-72-6"
             transform="matrix(0,1.5048634,-1.5048634,0,2339.7335,231.12692)">
            <path
               inkscape:connector-curvature="0"
               sodipodi:nodetypes="cacacsc"
               id="path4382-4-40-2"
               d="m 372.87529,1324.1931 c 0,0 -3.24682,11.1439 -3.24682,16.8706 0,5.7268 3.24683,16.8707 3.24683,16.8707 0,0 11.27432,-2.7601 16.23383,-5.6235 4.95952,-2.8634 12.98702,-11.2472 12.98702,-11.2472 0,0 -8.0275,-8.3838 -12.98702,-11.2471 -4.95951,-2.8634 -16.23384,-5.6235 -16.23384,-5.6235"
               style="fill:#ff6000;fill-opacity:1;stroke:#666666;stroke-width:0.93447;stroke-linecap:square;stroke-linejoin:miter;stroke-miterlimit:4;stroke-dasharray:none;stroke-opacity:1" />
            <path
               inkscape:connector-curvature="0"
               style="fill:none;stroke:#666666;stroke-width:0.93447;stroke-linecap:butt;stroke-linejoin:miter;stroke-miterlimit:4;stroke-dasharray:none;stroke-opacity:1"
               d="m 382.61558,1341.0637 -9.74029,-16.8706"
               id="path4202-7-9-2-9-6-7" />
            <path
               inkscape:connector-curvature="0"
               id="path4202-7-2-2-29-1"
               d="m 382.61558,1341.0637 -9.74028,16.8707"
               style="fill:none;stroke:#666666;stroke-width:0.93447;stroke-linecap:butt;stroke-linejoin:miter;stroke-miterlimit:4;stroke-dasharray:none;stroke-opacity:1" />
            <path
               inkscape:connector-curvature="0"
               style="fill:none;stroke:#666666;stroke-width:0.93447;stroke-linecap:butt;stroke-linejoin:miter;stroke-miterlimit:4;stroke-dasharray:none;stroke-opacity:1"
               d="m 382.61558,1341.0637 h 19.48057"
               id="path4202-3-0-9-5" />
          </g>
          <g
             style="stroke:#666666;stroke-width:0.93447;stroke-miterlimit:4;stroke-dasharray:none;stroke-opacity:1"
             transform="matrix(0,-1.5048634,1.5048634,0,-1696.2711,1453.9525)"
             id="g4640-1-6-0-8">
            <path
               inkscape:connector-curvature="0"
               style="fill:#ff6000;fill-opacity:1;stroke:#666666;stroke-width:0.93447;stroke-linecap:square;stroke-linejoin:miter;stroke-miterlimit:4;stroke-dasharray:none;stroke-opacity:1"
               d="m 372.87529,1324.1931 c 0,0 -3.24682,11.1439 -3.24682,16.8706 0,5.7268 3.24683,16.8707 3.24683,16.8707 0,0 11.27432,-2.7601 16.23383,-5.6235 4.95952,-2.8634 12.98702,-11.2472 12.98702,-11.2472 0,0 -8.0275,-8.3838 -12.98702,-11.2471 -4.95951,-2.8634 -16.23384,-5.6235 -16.23384,-5.6235"
               id="path4382-4-8-8-8"
               sodipodi:nodetypes="cacacsc" />
            <path
               inkscape:connector-curvature="0"
               id="path4202-7-9-2-9-9-1-4"
               d="m 382.61558,1341.0637 -9.74029,-16.8706"
               style="fill:none;stroke:#666666;stroke-width:0.93447;stroke-linecap:butt;stroke-linejoin:miter;stroke-miterlimit:4;stroke-dasharray:none;stroke-opacity:1" />
            <path
               inkscape:connector-curvature="0"
               style="fill:none;stroke:#666666;stroke-width:0.93447;stroke-linecap:butt;stroke-linejoin:miter;stroke-miterlimit:4;stroke-dasharray:none;stroke-opacity:1"
               d="m 382.61558,1341.0637 -9.74028,16.8707"
               id="path4202-7-2-2-2-3-5" />
            <path
               inkscape:connector-curvature="0"
               id="path4202-3-0-6-1-6"
               d="m 382.61558,1341.0637 h 19.48057"
               style="fill:none;stroke:#666666;stroke-width:0.93447;stroke-linecap:butt;stroke-linejoin:miter;stroke-miterlimit:4;stroke-dasharray:none;stroke-opacity:1" />
          </g>
        </g>
        <g
           aria-label="ParaNut"
           style="font-style:normal;font-weight:normal;font-size:21.6303215px;line-height:1.25;font-family:sans-serif;letter-spacing:0px;word-spacing:0px;fill:#ff6000;fill-opacity:1;stroke:none;stroke-width:0.54075807"
           id="text874">
          <path
             d="m 566.83222,837.38348 v -54.69875 -3.14361 h 3.14361 26.87783 q 22.47679,0.15718 25.46322,0.15718 3.1436,0 5.50131,0.62872 7.85901,2.04335 13.04596,8.17338 5.34414,5.97285 6.28722,13.98905 0.15718,1.25744 0.15718,8.8021 0.15718,7.38747 0,14.93213 0,7.38747 -0.15718,8.64491 -1.10026,8.95928 -7.38748,15.2465 -6.13003,6.28721 -15.08931,7.54465 -1.5718,0.15718 -20.7478,0.15718 h -15.87522 v 15.87522 q 0,1.10026 0,3.1436 0,12.88879 -0.15718,15.24649 0,2.35771 -0.7859,3.92951 -0.15718,0 -0.15718,0.15718 -1.5718,3.30079 -4.87259,4.87259 -3.92951,1.88617 -8.17337,0.47154 -2.20053,-0.7859 -3.92951,-2.51488 -1.72899,-1.72898 -2.51489,-3.92951 -0.62872,-1.25744 -0.7859,-3.92951 0,-2.82924 0,-18.07574 0.15718,-19.49036 0.15718,-35.67993 z m 55.79902,-36.30866 q -1.10027,-0.15718 -18.70446,-0.15718 h -15.87522 v 17.76138 17.76138 h 15.87522 q 17.91856,0 19.01882,-0.15718 l 0.47154,-0.31436 q 1.41462,-0.62872 2.04334,-2.04335 0.15718,-0.15718 0.31436,-0.47154 0.15718,-0.7859 0.15718,-14.77495 v -14.14623 -0.15718 l -0.15718,-0.15718 q -0.62872,-2.3577 -3.1436,-3.14361 z"
             style="font-style:normal;font-variant:normal;font-weight:bold;font-stretch:normal;font-size:157.18032837px;font-family:OCRABold;-inkscape-font-specification:'OCRABold, Bold';font-variant-ligatures:normal;font-variant-caps:normal;font-variant-numeric:normal;font-feature-settings:normal;text-align:start;writing-mode:lr-tb;text-anchor:start;fill:#ff6000;fill-opacity:1;stroke-width:0.54075807"
             id="path971" />
          <path
             d="m 687.96601,811.29155 q 0.47154,0 16.18957,0 12.57443,0 14.61777,0.15718 2.20053,0 4.40105,0.47154 7.85902,2.04334 13.04597,8.17337 5.34413,5.97286 6.13003,13.98905 0.15718,1.10027 0.94309,20.27627 0.62872,19.49036 0.94308,28.29245 0.31436,9.27364 0.15718,10.21673 -0.15718,0.7859 -0.47154,1.72898 -0.15718,0.94308 -0.62872,1.72898 -0.47155,0.78591 -1.10027,1.57181 -0.47154,0.7859 -1.10026,1.41462 -0.94308,0.94308 -2.20052,1.5718 -3.92951,2.04335 -8.17338,0.62872 -4.24387,-1.25744 -6.28721,-5.18695 -0.62873,0.47154 -1.10027,0.78591 -0.47154,0.15718 -0.94308,0.47154 -0.47154,0.15718 -1.10026,0.62872 -0.94308,0.47154 -1.41462,0.7859 -0.31436,0.15718 -0.94309,0.47154 -0.62872,0.47154 -0.94308,0.62872 -0.31436,0.15718 -0.7859,0.31436 -0.31436,0.31436 -0.62872,0.31436 -0.15718,0.15718 -0.47154,0.31436 -0.31436,0.31436 -0.47154,0.31436 -0.15718,0 -0.47154,0.15718 -0.15718,0.15718 -0.47154,0.15718 -0.15718,0 -0.31437,0.15718 -1.25744,0.31437 -6.75875,0.31437 -4.24387,0 -7.54466,0 -10.3739,0 -12.57442,-0.15718 -2.04335,0 -4.24387,-0.62873 -6.91593,-1.72898 -12.10289,-7.07311 -5.81567,-5.97285 -6.91593,-14.46059 -0.15718,-1.10026 -0.15718,-2.35771 0,-1.25744 0,-5.02977 0,-5.65849 0.15718,-7.23029 1.10026,-8.48774 7.07311,-14.61777 1.88617,-2.04335 4.08669,-3.45797 2.35771,-1.5718 4.87259,-2.51488 2.51489,-0.94309 5.34413,-1.41463 l 1.25745,-0.31436 h 0.31436 0.15718 16.50393 16.50394 0.31436 0.31436 l 0.47154,0.15718 q 0,-0.7859 0,-1.41462 -0.15718,-1.72898 -0.31436,-2.98643 0,-1.41462 0,-2.04334 0,-0.62872 0,-0.7859 -0.47154,-2.20053 -2.82925,-3.14361 h -0.47154 l -14.61777,-0.15718 h -0.15718 -0.15718 -0.15718 -0.15718 -0.15718 -0.15718 -0.15718 -0.15718 -0.15718 -0.15718 -0.15718 -0.15718 -0.15718 -0.31436 q -13.67469,0 -15.40368,-0.7859 -0.15718,0 -0.62872,-0.31436 -1.41462,-0.62872 -2.51488,-1.57181 -1.10026,-1.10026 -1.88617,-2.3577 -0.7859,-1.25744 -1.25744,-2.67207 -0.15718,-0.62872 -0.31436,-1.25744 0,-0.7859 0,-1.72898 0,-1.72899 0.31436,-2.98643 0.62872,-2.04334 1.88617,-3.61515 2.67206,-3.30078 6.91593,-3.9295 z m 31.43607,53.12695 -0.31437,-0.15718 h -14.93213 q -2.82924,0 -5.50131,0 -2.51488,0 -4.55823,0 -2.04334,0 -3.45796,0 -1.41463,0 -2.04335,0 -0.31436,0.15718 -0.47154,0.15718 -1.88616,0.62872 -2.67207,2.82924 v 0.31436 4.87259 5.02977 q 0,0 0,0.15718 0.78591,2.35771 2.98643,2.98643 0.7859,0.15718 10.3739,0.15718 h 9.90236 l 7.38748,-4.24387 q 1.72898,-1.10026 3.45797,-2.04334 1.88616,-1.10026 2.98642,-1.57181 -0.15718,-0.47154 -0.15718,-0.94308 0,-0.47154 0,-1.10026 -0.15718,-3.30079 -0.15718,-3.61515 -0.47154,-1.41462 -1.41462,-2.04334 -0.47154,-0.47154 -0.62872,-0.47154 0,-0.15718 -0.7859,-0.31436 z"
             style="font-style:normal;font-variant:normal;font-weight:bold;font-stretch:normal;font-size:157.18032837px;font-family:OCRABold;-inkscape-font-specification:'OCRABold, Bold';font-variant-ligatures:normal;font-variant-caps:normal;font-variant-numeric:normal;font-feature-settings:normal;text-align:start;writing-mode:lr-tb;text-anchor:start;fill:#ff6000;fill-opacity:1;stroke-width:0.54075807"
             id="path973"
             inkscape:connector-curvature="0" />
          <path
             d="m 785.10318,811.44873 q 3.92951,-0.78591 7.38747,1.25744 0.7859,0.47154 1.41463,1.10026 0.7859,0.47154 1.25744,1.25744 0.62872,0.62872 1.10026,1.41463 0.47154,0.7859 0.7859,1.72898 0.15718,0.47154 0.15718,0.94308 0.15718,0.31436 0.15718,0.94308 0.15718,0.47155 0.15718,1.10027 0.15718,0.47154 0.15718,1.25744 0,0.62872 0,1.5718 0.94309,-0.7859 1.72899,-1.41462 0.94308,-0.7859 1.88616,-1.5718 8.64492,-7.54466 9.588,-8.0162 1.41462,-0.94308 3.14361,-1.5718 1.10026,-0.15718 10.3739,-0.15718 7.38747,0 9.11646,0.15718 1.72898,0 3.77233,0.47154 5.18695,1.25744 9.27364,4.40105 4.24386,2.98642 6.75875,7.54465 2.67207,4.40105 3.45797,9.588 0.15718,2.04335 0.15718,4.87259 0,2.82925 -0.15718,4.40105 -0.47154,2.51489 -2.04335,4.55823 -1.41462,2.04335 -3.77233,3.14361 -2.20052,1.10026 -4.71541,1.10026 -3.61514,0 -6.44439,-2.20052 -2.82924,-2.20053 -3.77233,-5.6585 -0.31436,-1.10026 -0.47154,-4.87259 v -2.98642 l -0.15718,-0.31436 q -0.31436,-0.78591 -0.7859,-1.57181 -0.47154,-0.47154 -1.41462,-0.94308 -0.7859,-0.31436 -0.94308,-0.31436 -0.15718,0 -6.28722,0 h -5.50131 l -11.47416,9.74518 -11.31699,9.588 v 19.64754 q 0,17.6042 -0.15718,20.27626 0,2.51489 -0.94308,4.24387 -1.5718,3.30079 -4.87259,4.87259 -3.92951,1.88617 -8.17338,0.47154 -2.20052,-0.7859 -3.9295,-2.51488 -2.35771,-2.35771 -2.98643,-5.65849 -0.31436,-1.88617 -0.31436,-36.62302 0,-34.89403 0.31436,-36.7802 0.15718,-0.7859 0.31436,-1.41462 0.31436,-0.7859 0.62872,-1.41462 0.47154,-0.7859 0.94308,-1.41463 0.47154,-0.62872 1.10027,-1.25744 2.3577,-2.51488 5.50131,-2.98642 z"
             style="font-style:normal;font-variant:normal;font-weight:bold;font-stretch:normal;font-size:157.18032837px;font-family:OCRABold;-inkscape-font-specification:'OCRABold, Bold';font-variant-ligatures:normal;font-variant-caps:normal;font-variant-numeric:normal;font-feature-settings:normal;text-align:start;writing-mode:lr-tb;text-anchor:start;fill:#ff6000;fill-opacity:1;stroke-width:0.54075807"
             id="path975"
             inkscape:connector-curvature="0" />
          <path
             d="m 897.59204,811.29155 q 0.47154,0 16.18957,0 12.57443,0 14.61778,0.15718 2.20052,0 4.40104,0.47154 7.85902,2.04334 13.04597,8.17337 5.34413,5.97286 6.13003,13.98905 0.15718,1.10027 0.94309,20.27627 0.62872,19.49036 0.94308,28.29245 0.31436,9.27364 0.15718,10.21673 -0.15718,0.7859 -0.47154,1.72898 -0.15718,0.94308 -0.62872,1.72898 -0.47154,0.78591 -1.10027,1.57181 -0.47154,0.7859 -1.10026,1.41462 -0.94308,0.94308 -2.20052,1.5718 -3.92951,2.04335 -8.17338,0.62872 -4.24387,-1.25744 -6.28721,-5.18695 -0.62872,0.47154 -1.10027,0.78591 -0.47154,0.15718 -0.94308,0.47154 -0.47154,0.15718 -1.10026,0.62872 -0.94308,0.47154 -1.41462,0.7859 -0.31436,0.15718 -0.94308,0.47154 -0.62873,0.47154 -0.94309,0.62872 -0.31436,0.15718 -0.7859,0.31436 -0.31436,0.31436 -0.62872,0.31436 -0.15718,0.15718 -0.47154,0.31436 -0.31436,0.31436 -0.47154,0.31436 -0.15718,0 -0.47154,0.15718 -0.15718,0.15718 -0.47154,0.15718 -0.15718,0 -0.31436,0.15718 -1.25745,0.31437 -6.75876,0.31437 -4.24387,0 -7.54465,0 -10.37391,0 -12.57443,-0.15718 -2.04334,0 -4.24387,-0.62873 -6.91593,-1.72898 -12.10288,-7.07311 -5.81568,-5.97285 -6.91594,-14.46059 -0.15718,-1.10026 -0.15718,-2.35771 0,-1.25744 0,-5.02977 0,-5.65849 0.15718,-7.23029 1.10026,-8.48774 7.07312,-14.61777 1.88616,-2.04335 4.08668,-3.45797 2.35771,-1.5718 4.87259,-2.51488 2.51489,-0.94309 5.34414,-1.41463 l 1.25744,-0.31436 h 0.31436 0.15718 16.50393 16.50394 0.31436 0.31436 l 0.47154,0.15718 q 0,-0.7859 0,-1.41462 -0.15718,-1.72898 -0.31436,-2.98643 0,-1.41462 0,-2.04334 0,-0.62872 0,-0.7859 -0.47154,-2.20053 -2.82925,-3.14361 h -0.47154 l -14.61777,-0.15718 h -0.15718 -0.15718 -0.15718 -0.15718 -0.15718 -0.15718 -0.15718 -0.15718 -0.15718 -0.15718 -0.15718 -0.15718 -0.15718 -0.31436 q -13.67469,0 -15.40367,-0.7859 -0.15718,0 -0.62873,-0.31436 -1.41462,-0.62872 -2.51488,-1.57181 -1.10026,-1.10026 -1.88617,-2.3577 -0.7859,-1.25744 -1.25744,-2.67207 -0.15718,-0.62872 -0.31436,-1.25744 0,-0.7859 0,-1.72898 0,-1.72899 0.31436,-2.98643 0.62872,-2.04334 1.88617,-3.61515 2.67206,-3.30078 6.91593,-3.9295 z m 31.43607,53.12695 -0.31436,-0.15718 h -14.93214 q -2.82924,0 -5.50131,0 -2.51488,0 -4.55823,0 -2.04334,0 -3.45796,0 -1.41463,0 -2.04335,0 -0.31436,0.15718 -0.47154,0.15718 -1.88616,0.62872 -2.67206,2.82924 v 0.31436 4.87259 5.02977 q 0,0 0,0.15718 0.7859,2.35771 2.98642,2.98643 0.7859,0.15718 10.3739,0.15718 h 9.90236 l 7.38748,-4.24387 q 1.72898,-1.10026 3.45797,-2.04334 1.88616,-1.10026 2.98642,-1.57181 -0.15718,-0.47154 -0.15718,-0.94308 0,-0.47154 0,-1.10026 -0.15718,-3.30079 -0.15718,-3.61515 -0.47154,-1.41462 -1.41462,-2.04334 -0.47154,-0.47154 -0.62872,-0.47154 0,-0.15718 -0.7859,-0.31436 z"
             style="font-style:normal;font-variant:normal;font-weight:bold;font-stretch:normal;font-size:157.18032837px;font-family:OCRABold;-inkscape-font-specification:'OCRABold, Bold';font-variant-ligatures:normal;font-variant-caps:normal;font-variant-numeric:normal;font-feature-settings:normal;text-align:start;writing-mode:lr-tb;text-anchor:start;fill:#ff6000;fill-opacity:1;stroke-width:0.54075807"
             id="path977"
             inkscape:connector-curvature="0" />
          <path
             d="m 986.08464,837.38348 v -54.69875 -3.14361 h 3.14366 9.90248 l 9.90242,0.15718 h 2.0433 l 0.7859,1.72898 1.1003,2.35771 q 0.9431,2.3577 19.6475,44.79639 l 12.5745,28.764 v -26.72065 q 0,-13.04597 0,-28.29246 0,-13.36033 0.3143,-14.77495 0.3144,-0.78591 0.6287,-1.41463 0.3144,-0.62872 0.6288,-1.25744 0.3143,-0.62872 0.7859,-1.25744 0.4715,-0.62872 1.1002,-1.10026 1.729,-1.57181 3.6152,-2.35771 4.2438,-1.41462 8.3305,0.47154 2.0434,1.10026 3.458,2.82925 1.4146,1.72898 2.2005,3.92951 0.3144,1.41462 0.3144,18.54727 0,20.11909 0,38.03764 v 55.01312 3.14361 h -3.1436 -9.9024 -10.0595 -2.0434 l -0.7859,-1.88617 -19.6475,-44.79639 -13.5175,-30.96453 -0.1572,26.72066 q 0,13.20315 0.1572,28.29246 0,13.36033 -0.4716,14.77495 -1.4146,4.71541 -5.6585,6.75875 -1.88612,0.94309 -4.08666,0.94309 -2.04344,0.15718 -4.08678,-0.47155 -2.20064,-0.7859 -3.92956,-2.51488 -1.72904,-1.72898 -2.51496,-3.92951 -0.6287,-1.25744 -0.78592,-3.92951 0,-2.82924 0,-18.07574 0.15722,-19.49036 0.15722,-35.67993 z"
             style="font-style:normal;font-variant:normal;font-weight:bold;font-stretch:normal;font-size:157.18032837px;font-family:OCRABold;-inkscape-font-specification:'OCRABold, Bold';font-variant-ligatures:normal;font-variant-caps:normal;font-variant-numeric:normal;font-feature-settings:normal;text-align:start;writing-mode:lr-tb;text-anchor:start;fill:#ff6000;fill-opacity:1;stroke-width:0.54075807"
             id="path979"
             inkscape:connector-curvature="0" />
          <path
             d="m 1107.2706,811.29155 q 2.2005,-0.31436 4.5582,0.31436 5.9729,1.72898 7.5447,7.70183 0.3143,1.10026 1.2574,29.70708 0.3144,7.38748 0.4716,12.88879 0.1571,5.50131 0.3143,8.8021 0.1572,3.14361 0.1572,4.87259 0.1572,1.5718 0.1572,2.04334 0.6287,2.20053 2.8292,2.98643 l 0.3144,0.15718 h 5.0298 q 5.3441,0 5.9728,-0.31436 1.8862,-1.10026 11.7885,-7.38748 l 9.9024,-6.44439 v -21.84806 q 0,-3.77233 0,-9.74518 0,-11.15981 0,-13.20315 0.1572,-2.20053 0.6287,-3.45797 0,-0.15718 0,-0.15718 0.4716,-0.94308 0.9431,-1.72898 1.2574,-2.35771 3.7723,-3.77233 0.9431,-0.62872 1.8862,-0.94308 1.1003,-0.31436 2.2005,-0.47154 3.458,-0.47155 6.6016,1.41462 2.5149,1.41462 3.9295,3.77233 0.3144,0.62872 0.4715,1.25744 0.3144,0.62872 0.4716,1.25744 0.1572,0.62872 0.3143,1.25744 0.1572,0.94309 0.1572,36.93738 0,11.1598 0,24.04859 0,8.33056 0,10.21672 0,1.88617 -0.3143,2.82925 -0.7859,2.20052 -2.0434,3.92951 -1.1002,1.25744 -2.672,2.20052 -1.4147,0.94308 -2.9865,1.41462 -4.2438,1.10027 -8.0162,-1.10026 -3.3008,-2.04334 -4.5582,-5.34413 -0.6287,-1.5718 -0.6287,-3.45797 l -2.9864,1.88617 q -6.1301,3.92951 -8.1734,5.18695 -2.0434,1.10026 -4.2439,1.72898 -2.5149,0.94308 -5.3441,1.25745 -1.8862,0.15718 -7.7019,0.15718 -5.6585,0 -7.3874,-0.31437 -8.4878,-1.41462 -14.3034,-7.38747 -6.2873,-6.44439 -7.2303,-15.24649 0,-0.47154 -0.1572,-4.55823 -0.1572,-4.24387 -0.4716,-10.3739 -0.1571,-6.13004 -0.4715,-13.20315 -0.1572,-7.07312 -0.4715,-13.20315 -0.1572,-6.28721 -0.3144,-10.53108 0,-4.40105 0,-5.02977 0,-2.82925 0.9431,-4.87259 0.9431,-2.35771 2.9864,-3.92951 2.2005,-1.72898 4.8726,-2.20052 z"
             style="font-style:normal;font-variant:normal;font-weight:bold;font-stretch:normal;font-size:157.18032837px;font-family:OCRABold;-inkscape-font-specification:'OCRABold, Bold';font-variant-ligatures:normal;font-variant-caps:normal;font-variant-numeric:normal;font-feature-settings:normal;text-align:start;writing-mode:lr-tb;text-anchor:start;fill:#ff6000;fill-opacity:1;stroke-width:0.54075807"
             id="path981"
             inkscape:connector-curvature="0" />
          <path
             d="m 1234.1148,786.14269 q 2.3578,-0.47154 4.8726,0.15718 0.4716,0.15718 0.9431,0.31436 0.4716,0.15718 0.9431,0.47155 1.729,0.7859 2.8292,2.04334 1.2575,1.25744 2.0434,2.82925 0.7859,1.5718 0.9431,3.45796 0.1572,1.72899 0.1572,9.43082 v 6.28722 l 12.26,0.15718 h 15.4037 0.4715 l 0.4716,0.15718 0.6287,0.15718 q 4.5582,1.41462 6.6016,5.50131 0.6287,1.10026 0.7859,2.3577 0.3143,1.10027 0.3143,2.35771 0,0.94308 -0.1571,1.72898 0,0.7859 -0.3144,1.5718 -0.1572,0.78591 -0.6287,1.41463 -2.0434,4.24387 -6.6016,5.65849 l -0.6287,0.15718 -0.4716,0.15718 h -0.4715 -15.4037 -12.26 l 0.1571,21.21934 v 23.73423 l 0.1572,0.47154 q 0.3144,1.25745 1.2575,1.88617 0.4715,0.47154 0.6287,0.62872 0.1572,0 0.7859,0.15718 l 0.3143,0.15718 h 8.1734 q 2.0434,0 3.6152,0 1.729,0 2.5149,0 0.943,-0.15718 1.5718,-0.15718 0.6287,0 0.943,0 h 0.1572 q 0.1572,0 0.6287,-0.31436 0.4716,-0.31436 0.9431,-0.62872 0.4716,-0.47154 0.7859,-0.94308 0.3144,-0.62872 0.4716,-1.25745 0.7859,-3.61514 2.672,-5.65849 3.6152,-4.24387 9.2737,-3.61515 2.8292,0.47155 5.0297,2.20053 2.3577,1.72898 3.458,4.40105 1.2575,2.67206 0.7859,5.50131 -0.7859,4.71541 -3.3008,8.95928 -2.3577,4.08669 -6.13,7.23029 -1.2575,0.94309 -2.6721,1.88617 -1.2574,0.7859 -2.672,1.41462 -1.2575,0.62872 -2.8293,1.10026 -1.4146,0.47154 -2.8292,0.7859 -2.6721,0.47155 -13.046,0.47155 h -9.1165 -0.1571 l -0.3144,-0.15718 -1.4146,-0.15719 q -8.1734,-1.5718 -13.8319,-7.38747 -5.9728,-6.13003 -7.0731,-14.61777 -0.1572,-1.72898 -0.1572,-26.09194 v -21.21934 h -1.2574 q -0.3144,0 -0.9431,0 -1.1003,0 -1.5718,0 -0.4716,0 -1.1003,0 -0.6287,0 -0.9431,0 -0.3143,-0.15718 -0.6287,-0.15718 -0.3143,-0.15718 -0.6287,-0.15718 -1.1003,-0.47154 -2.2005,-0.94308 -0.9431,-0.62872 -1.8862,-1.25745 -0.7859,-0.7859 -1.5718,-1.72898 -0.6287,-0.94308 -1.1003,-1.88616 -0.4715,-1.10027 -0.7859,-2.20053 -0.1571,-1.10026 -0.1571,-2.3577 0,-3.61515 2.0433,-6.28722 2.2005,-2.82924 5.6585,-3.9295 1.1003,-0.31436 5.8157,-0.31436 h 1.2574 v -6.4444 q 0,-8.01619 0.1572,-9.588 0.1572,-1.72898 0.9431,-3.30078 0.6287,-1.57181 1.729,-2.67207 1.2574,-1.25744 2.672,-2.04334 1.4146,-0.78591 2.9864,-1.10027 z"
             style="font-style:normal;font-variant:normal;font-weight:bold;font-stretch:normal;font-size:157.18032837px;font-family:OCRABold;-inkscape-font-specification:'OCRABold, Bold';font-variant-ligatures:normal;font-variant-caps:normal;font-variant-numeric:normal;font-feature-settings:normal;text-align:start;writing-mode:lr-tb;text-anchor:start;fill:#ff6000;fill-opacity:1;stroke-width:0.54075807"
             id="path983"
             inkscape:connector-curvature="0" />
        </g>
      </g>
    </g>
    <flowRoot
       xml:space="preserve"
       id="flowRoot2690"
       style="font-style:normal;font-weight:normal;font-size:40px;line-height:1.25;font-family:sans-serif;text-align:center;letter-spacing:0px;word-spacing:0px;text-anchor:middle;fill:#000000;fill-opacity:1;stroke:none"
       transform="matrix(0.9375,0,0,0.9375,0,308.2677)"><flowRegion
         id="flowRegion2692"><rect
           id="rect2694"
           width="433.76065"
           height="144.19717"
           x="341.36475"
           y="559.74823" /></flowRegion><flowPara
         id="flowPara2696" /></flowRoot>    <flowRoot
       xml:space="preserve"
       id="flowRoot2698"
       style="font-style:normal;font-weight:normal;font-size:40px;line-height:1.25;font-family:sans-serif;text-align:center;letter-spacing:0px;word-spacing:0px;text-anchor:middle;fill:#000000;fill-opacity:1;stroke:none"
       transform="matrix(0.9375,0,0,0.9375,0,308.2677)"><flowRegion
         id="flowRegion2700"><rect
           id="rect2702"
           width="417.87753"
           height="107.41219"
           x="-2.9427996"
           y="472.93567" /></flowRegion><flowPara
         id="flowPara2704" /></flowRoot>    <flowRoot
       xml:space="preserve"
       id="flowRoot2706"
       style="font-style:normal;font-weight:normal;font-size:40px;line-height:1.25;font-family:sans-serif;text-align:center;letter-spacing:0px;word-spacing:0px;text-anchor:middle;fill:#000000;fill-opacity:1;stroke:none"
       transform="matrix(0.9375,0,0,0.9375,0,308.2677)"><flowRegion
         id="flowRegion2708"><rect
           id="rect2710"
           width="435.53433"
           height="135.36877"
           x="338.42194"
           y="572.99084" /></flowRegion><flowPara
         id="flowPara2712" /></flowRoot>  </g>
</svg>
